<?xml version="1.0" encoding="utf-8" standalone="no"?>
<!DOCTYPE svg PUBLIC "-//W3C//DTD SVG 1.1//EN"
  "http://www.w3.org/Graphics/SVG/1.1/DTD/svg11.dtd">
<svg xmlns:xlink="http://www.w3.org/1999/xlink" width="1016.39952pt" height="245.999497pt" viewBox="0 0 1016.39952 245.999497" xmlns="http://www.w3.org/2000/svg" version="1.1">
 <metadata>
  <rdf:RDF xmlns:dc="http://purl.org/dc/elements/1.1/" xmlns:cc="http://creativecommons.org/ns#" xmlns:rdf="http://www.w3.org/1999/02/22-rdf-syntax-ns#">
   <cc:Work>
    <dc:type rdf:resource="http://purl.org/dc/dcmitype/StillImage"/>
    <dc:date>2026-09-13T19:09:06.847640</dc:date>
    <dc:format>image/svg+xml</dc:format>
    <dc:creator>
     <cc:Agent>
      <dc:title>Matplotlib v3.10.6, https://matplotlib.org/</dc:title>
     </cc:Agent>
    </dc:creator>
   </cc:Work>
  </rdf:RDF>
 </metadata>
 <defs>
  <style type="text/css">*{stroke-linejoin: round; stroke-linecap: butt}</style>
 </defs>
 <g id="figure_1">
  <g id="patch_1">
   <path d="M 0 245.999497 
L 1016.39952 245.999497 
L 1016.39952 0 
L 0 0 
z
" style="fill: #ffffff"/>
  </g>
  <g id="axes_1">
   <g id="patch_2">
    <path d="M 56.046875 207.67981 
L 257.055536 207.67981 
L 257.055536 23.858028 
L 56.046875 23.858028 
z
" style="fill: #ffffff"/>
   </g>
   <g id="patch_3">
    <path d="M 65.183632 207.67981 
L 120.004176 207.67981 
L 120.004176 23.858028 
L 65.183632 23.858028 
z
" clip-path="url(#pbfd04013b0)" style="fill: #ddf3de; opacity: 0.38; stroke: #ddf3de; stroke-linejoin: miter"/>
   </g>
   <g id="patch_4">
    <path d="M 120.004176 207.67981 
L 171.170017 207.67981 
L 171.170017 23.858028 
L 120.004176 23.858028 
z
" clip-path="url(#pbfd04013b0)" style="fill: #cfcece; opacity: 0.38; stroke: #cfcece; stroke-linejoin: miter"/>
   </g>
   <g id="patch_5">
    <path d="M 171.170017 207.67981 
L 193.098235 207.67981 
L 193.098235 23.858028 
L 171.170017 23.858028 
z
" clip-path="url(#pbfd04013b0)" style="fill: #f6cfcb; opacity: 0.38; stroke: #f6cfcb; stroke-linejoin: miter"/>
   </g>
   <g id="patch_6">
    <path d="M 193.098235 207.67981 
L 247.918778 207.67981 
L 247.918778 23.858028 
L 193.098235 23.858028 
z
" clip-path="url(#pbfd04013b0)" style="fill: #dce8f4; opacity: 0.38; stroke: #dce8f4; stroke-linejoin: miter"/>
   </g>
   <g id="FillBetweenPolyCollection_1">
    <defs>
     <path id="m7d56e00597" d="M 66.097308 -46.718994 
L 66.097308 -46.675223 
L 67.924659 -46.746542 
L 69.752011 -46.819608 
L 71.579362 -46.852551 
L 73.406714 -46.904941 
L 75.234065 -46.948892 
L 77.061417 -46.987735 
L 78.888768 -47.014287 
L 80.71612 -47.03853 
L 82.543471 -47.112314 
L 84.370823 -47.135861 
L 86.198174 -47.159112 
L 88.025526 -47.378793 
L 89.852877 -47.418597 
L 91.680228 -47.46631 
L 93.50758 -47.504399 
L 95.334931 -47.548838 
L 97.162283 -47.579596 
L 98.989634 -47.612713 
L 100.816986 -47.640511 
L 102.644337 -47.724934 
L 104.471689 -47.896156 
L 106.29904 -48.018514 
L 108.126392 -48.342465 
L 109.953743 -48.452758 
L 111.781095 -48.491685 
L 113.608446 -48.517737 
L 115.435797 -48.548023 
L 117.263149 -48.574359 
L 119.0905 -48.599421 
L 120.917852 -48.637336 
L 122.745203 -48.683976 
L 124.572555 -48.896194 
L 126.399906 -49.51894 
L 128.227258 -50.015522 
L 130.054609 -50.434628 
L 131.881961 -50.800958 
L 133.709312 -51.034975 
L 135.536664 -51.414337 
L 137.364015 -51.619927 
L 139.191366 -51.938675 
L 141.018718 -52.349524 
L 142.846069 -52.6205 
L 144.673421 -52.90087 
L 146.500772 -53.249319 
L 148.328124 -53.598721 
L 150.155475 -53.850704 
L 151.982827 -54.002808 
L 153.810178 -54.293257 
L 155.63753 -54.793273 
L 157.464881 -55.226657 
L 159.292233 -57.342773 
L 161.119584 -59.178035 
L 162.946935 -60.824575 
L 164.774287 -61.54034 
L 166.601638 -65.039622 
L 168.42899 -66.854142 
L 170.256341 -67.42411 
L 172.083693 -68.457056 
L 173.911044 -69.013664 
L 175.738396 -69.844842 
L 177.565747 -72.255607 
L 179.393099 -74.488569 
L 181.22045 -79.164339 
L 183.047801 -86.235232 
L 184.875153 -88.650017 
L 186.702504 -90.362537 
L 188.529856 -92.158467 
L 190.357207 -95.354053 
L 192.184559 -98.139922 
L 194.01191 -101.44065 
L 195.839262 -107.978298 
L 197.666613 -115.096541 
L 199.493965 -121.990872 
L 201.321316 -128.04207 
L 203.148668 -132.174716 
L 204.976019 -135.643317 
L 206.80337 -137.77329 
L 208.630722 -139.176623 
L 210.458073 -140.237788 
L 212.285425 -141.183242 
L 214.112776 -141.855003 
L 215.940128 -142.390176 
L 217.767479 -142.762914 
L 219.594831 -143.114284 
L 221.422182 -143.767217 
L 223.249534 -144.297884 
L 225.076885 -144.986255 
L 226.904237 -145.935703 
L 228.731588 -147.114624 
L 230.558939 -147.889351 
L 232.386291 -148.806547 
L 234.213642 -149.486093 
L 236.040994 -149.814805 
L 237.868345 -150.006151 
L 239.695697 -150.174306 
L 241.523048 -150.457009 
L 243.3504 -150.732642 
L 245.177751 -150.980446 
L 247.005103 -151.179464 
L 247.005103 -213.785934 
L 247.005103 -213.785934 
L 245.177751 -212.757273 
L 243.3504 -211.629954 
L 241.523048 -210.16323 
L 239.695697 -208.876533 
L 237.868345 -208.163406 
L 236.040994 -207.542281 
L 234.213642 -207.313158 
L 232.386291 -207.243188 
L 230.558939 -207.185326 
L 228.731588 -207.128366 
L 226.904237 -207.106261 
L 225.076885 -207.049179 
L 223.249534 -206.978105 
L 221.422182 -206.861481 
L 219.594831 -206.595826 
L 217.767479 -206.037338 
L 215.940128 -200.847125 
L 214.112776 -194.474145 
L 212.285425 -189.305081 
L 210.458073 -185.308594 
L 208.630722 -182.966159 
L 206.80337 -181.447327 
L 204.976019 -178.95494 
L 203.148668 -175.453744 
L 201.321316 -170.724007 
L 199.493965 -166.208616 
L 197.666613 -160.659348 
L 195.839262 -153.371119 
L 194.01191 -146.133135 
L 192.184559 -141.49799 
L 190.357207 -138.645514 
L 188.529856 -135.870173 
L 186.702504 -128.490322 
L 184.875153 -116.165036 
L 183.047801 -104.158894 
L 181.22045 -98.077532 
L 179.393099 -93.004316 
L 177.565747 -89.268474 
L 175.738396 -86.927947 
L 173.911044 -83.380124 
L 172.083693 -82.29425 
L 170.256341 -81.091133 
L 168.42899 -78.372279 
L 166.601638 -77.363259 
L 164.774287 -75.695296 
L 162.946935 -73.802146 
L 161.119584 -72.522614 
L 159.292233 -71.254232 
L 157.464881 -69.816542 
L 155.63753 -67.843731 
L 153.810178 -66.840443 
L 151.982827 -66.524009 
L 150.155475 -66.341257 
L 148.328124 -66.193984 
L 146.500772 -64.529439 
L 144.673421 -63.197809 
L 142.846069 -62.42431 
L 141.018718 -62.16397 
L 139.191366 -61.889531 
L 137.364015 -59.246054 
L 135.536664 -58.231598 
L 133.709312 -57.676262 
L 131.881961 -57.380744 
L 130.054609 -57.1691 
L 128.227258 -55.302993 
L 126.399906 -53.726292 
L 124.572555 -52.574825 
L 122.745203 -51.760758 
L 120.917852 -51.181598 
L 119.0905 -51.066103 
L 117.263149 -50.936715 
L 115.435797 -50.86608 
L 113.608446 -50.738728 
L 111.781095 -50.621155 
L 109.953743 -50.584101 
L 108.126392 -50.542563 
L 106.29904 -50.516173 
L 104.471689 -50.491006 
L 102.644337 -50.474184 
L 100.816986 -50.463941 
L 98.989634 -50.45333 
L 97.162283 -50.437892 
L 95.334931 -50.396724 
L 93.50758 -50.35066 
L 91.680228 -49.53777 
L 89.852877 -49.310906 
L 88.025526 -48.731257 
L 86.198174 -48.353627 
L 84.370823 -48.239404 
L 82.543471 -48.021731 
L 80.71612 -47.843343 
L 78.888768 -47.691197 
L 77.061417 -47.503038 
L 75.234065 -47.283034 
L 73.406714 -47.197146 
L 71.579362 -47.101043 
L 69.752011 -46.965756 
L 67.924659 -46.835346 
L 66.097308 -46.718994 
z
"/>
    </defs>
    <g clip-path="url(#pbfd04013b0)">
     <use xlink:href="#m7d56e00597" x="0" y="245.999497" style="fill: #0f4d92; fill-opacity: 0.16"/>
    </g>
   </g>
   <g id="matplotlib.axis_1">
    <g id="xtick_1">
     <g id="line2d_1">
      <defs>
       <path id="mb2167cf1d7" d="M 0 0 
L 0 3.5 
" style="stroke: #000000; stroke-width: 0.8"/>
      </defs>
      <g>
       <use xlink:href="#mb2167cf1d7" x="64.269957" y="207.67981" style="stroke: #000000; stroke-width: 0.8"/>
      </g>
     </g>
     <g id="text_1">
      <text style="font-size: 11px; font-family: 'Arial'; text-anchor: middle" x="64.269957" y="222.553404" transform="rotate(-0 64.269957 222.553404)">0</text>
     </g>
    </g>
    <g id="xtick_2">
     <g id="line2d_2">
      <g>
       <use xlink:href="#mb2167cf1d7" x="100.816986" y="207.67981" style="stroke: #000000; stroke-width: 0.8"/>
      </g>
     </g>
     <g id="text_2">
      <text style="font-size: 11px; font-family: 'Arial'; text-anchor: middle" x="100.816986" y="222.553404" transform="rotate(-0 100.816986 222.553404)">20</text>
     </g>
    </g>
    <g id="xtick_3">
     <g id="line2d_3">
      <g>
       <use xlink:href="#mb2167cf1d7" x="137.364015" y="207.67981" style="stroke: #000000; stroke-width: 0.8"/>
      </g>
     </g>
     <g id="text_3">
      <text style="font-size: 11px; font-family: 'Arial'; text-anchor: middle" x="137.364015" y="222.553404" transform="rotate(-0 137.364015 222.553404)">40</text>
     </g>
    </g>
    <g id="xtick_4">
     <g id="line2d_4">
      <g>
       <use xlink:href="#mb2167cf1d7" x="173.911044" y="207.67981" style="stroke: #000000; stroke-width: 0.8"/>
      </g>
     </g>
     <g id="text_4">
      <text style="font-size: 11px; font-family: 'Arial'; text-anchor: middle" x="173.911044" y="222.553404" transform="rotate(-0 173.911044 222.553404)">60</text>
     </g>
    </g>
    <g id="xtick_5">
     <g id="line2d_5">
      <g>
       <use xlink:href="#mb2167cf1d7" x="210.458073" y="207.67981" style="stroke: #000000; stroke-width: 0.8"/>
      </g>
     </g>
     <g id="text_5">
      <text style="font-size: 11px; font-family: 'Arial'; text-anchor: middle" x="210.458073" y="222.553404" transform="rotate(-0 210.458073 222.553404)">80</text>
     </g>
    </g>
    <g id="xtick_6">
     <g id="line2d_6">
      <g>
       <use xlink:href="#mb2167cf1d7" x="247.005103" y="207.67981" style="stroke: #000000; stroke-width: 0.8"/>
      </g>
     </g>
     <g id="text_6">
      <text style="font-size: 11px; font-family: 'Arial'; text-anchor: middle" x="247.005103" y="222.553404" transform="rotate(-0 247.005103 222.553404)">100</text>
     </g>
    </g>
    <g id="text_7">
     <text style="font-size: 11px; font-family: 'Arial'; text-anchor: middle" x="156.551205" y="236.613247" transform="rotate(-0 156.551205 236.613247)">Episode</text>
    </g>
   </g>
   <g id="matplotlib.axis_2">
    <g id="ytick_1">
     <g id="line2d_7">
      <defs>
       <path id="m3ce429d977" d="M 0 0 
L -3.5 0 
" style="stroke: #000000; stroke-width: 0.8"/>
      </defs>
      <g>
       <use xlink:href="#m3ce429d977" x="56.046875" y="199.357224" style="stroke: #000000; stroke-width: 0.8"/>
      </g>
     </g>
     <g id="text_8">
      <text style="font-size: 11px; font-family: 'Arial'; text-anchor: end" x="49.046875" y="203.294021" transform="rotate(-0 49.046875 203.294021)">0.000</text>
     </g>
    </g>
    <g id="ytick_2">
     <g id="line2d_8">
      <g>
       <use xlink:href="#m3ce429d977" x="56.046875" y="156.294527" style="stroke: #000000; stroke-width: 0.8"/>
      </g>
     </g>
     <g id="text_9">
      <text style="font-size: 11px; font-family: 'Arial'; text-anchor: end" x="49.046875" y="160.231324" transform="rotate(-0 49.046875 160.231324)">0.002</text>
     </g>
    </g>
    <g id="ytick_3">
     <g id="line2d_9">
      <g>
       <use xlink:href="#m3ce429d977" x="56.046875" y="113.231831" style="stroke: #000000; stroke-width: 0.8"/>
      </g>
     </g>
     <g id="text_10">
      <text style="font-size: 11px; font-family: 'Arial'; text-anchor: end" x="49.046875" y="117.168628" transform="rotate(-0 49.046875 117.168628)">0.004</text>
     </g>
    </g>
    <g id="ytick_4">
     <g id="line2d_10">
      <g>
       <use xlink:href="#m3ce429d977" x="56.046875" y="70.169135" style="stroke: #000000; stroke-width: 0.8"/>
      </g>
     </g>
     <g id="text_11">
      <text style="font-size: 11px; font-family: 'Arial'; text-anchor: end" x="49.046875" y="74.105931" transform="rotate(-0 49.046875 74.105931)">0.006</text>
     </g>
    </g>
    <g id="ytick_5">
     <g id="line2d_11">
      <g>
       <use xlink:href="#m3ce429d977" x="56.046875" y="27.106438" style="stroke: #000000; stroke-width: 0.8"/>
      </g>
     </g>
     <g id="text_12">
      <text style="font-size: 11px; font-family: 'Arial'; text-anchor: end" x="49.046875" y="31.043235" transform="rotate(-0 49.046875 31.043235)">0.008</text>
     </g>
    </g>
    <g id="text_13">
     <text style="font-size: 11px; font-family: 'Arial'; text-anchor: middle" x="15.207656" y="115.768919" transform="rotate(-90 15.207656 115.768919)">Dynamic Local Regret (estimated)</text>
    </g>
   </g>
   <g id="line2d_12">
    <path d="M 66.097308 199.3106 
L 67.924659 199.204849 
L 69.752011 199.053362 
L 71.579362 198.984008 
L 73.406714 198.937233 
L 75.234065 198.879976 
L 77.061417 198.829151 
L 78.888768 198.790926 
L 80.71612 198.755398 
L 82.543471 198.6647 
L 84.370823 198.6408 
L 86.198174 198.614317 
L 88.025526 198.590011 
L 89.852877 198.378659 
L 91.680228 197.872974 
L 93.50758 197.746305 
L 95.334931 197.61316 
L 97.162283 197.520265 
L 98.989634 197.474172 
L 100.816986 197.433759 
L 102.644337 197.409302 
L 104.471689 197.391853 
L 106.29904 197.374435 
L 108.126392 197.353804 
L 109.953743 197.16892 
L 111.781095 196.739841 
L 113.608446 196.242129 
L 115.435797 196.208782 
L 117.263149 196.175385 
L 119.0905 196.146319 
L 120.917852 196.091367 
L 122.745203 196.046181 
L 124.572555 195.920245 
L 126.399906 195.167976 
L 128.227258 194.530225 
L 130.054609 193.69053 
L 131.881961 192.843826 
L 133.709312 191.362695 
L 135.536664 190.179018 
L 137.364015 189.273347 
L 139.191366 188.769319 
L 141.018718 188.119087 
L 142.846069 187.77651 
L 144.673421 187.321499 
L 146.500772 186.915923 
L 148.328124 186.385201 
L 150.155475 185.914899 
L 151.982827 185.435094 
L 153.810178 185.366458 
L 155.63753 184.916006 
L 157.464881 183.542971 
L 159.292233 182.058113 
L 161.119584 180.457201 
L 162.946935 179.301 
L 164.774287 178.152113 
L 166.601638 177.678669 
L 168.42899 174.762776 
L 170.256341 171.810249 
L 172.083693 171.032425 
L 173.911044 169.968648 
L 175.738396 169.1712 
L 177.565747 168.129673 
L 179.393099 158.659125 
L 181.22045 150.01999 
L 183.047801 143.720843 
L 184.875153 136.612563 
L 186.702504 128.726788 
L 188.529856 122.842996 
L 190.357207 120.947183 
L 192.184559 119.232205 
L 194.01191 113.947344 
L 195.839262 107.151122 
L 197.666613 102.048868 
L 199.493965 94.986626 
L 201.321316 88.735836 
L 203.148668 85.680028 
L 204.976019 83.783476 
L 206.80337 83.027105 
L 208.630722 82.361251 
L 210.458073 81.575145 
L 212.285425 81.141101 
L 214.112776 80.919832 
L 215.940128 80.739895 
L 217.767479 80.697004 
L 219.594831 80.627701 
L 221.422182 80.486234 
L 223.249534 80.276673 
L 225.076885 80.014711 
L 226.904237 79.743207 
L 228.731588 79.50515 
L 230.558939 79.350003 
L 232.386291 79.23393 
L 234.213642 79.132063 
L 236.040994 78.910359 
L 237.868345 78.747056 
L 239.695697 78.345461 
L 241.523048 77.708331 
L 243.3504 76.456919 
L 245.177751 74.063713 
L 247.005103 71.11706 
" clip-path="url(#pbfd04013b0)" style="fill: none; stroke: #0f4d92; stroke-width: 1.8; stroke-linecap: square"/>
   </g>
   <g id="patch_7">
    <path d="M 56.046875 207.67981 
L 56.046875 23.858028 
" style="fill: none; stroke: #000000; stroke-linejoin: miter; stroke-linecap: square"/>
   </g>
   <g id="patch_8">
    <path d="M 56.046875 207.67981 
L 257.055536 207.67981 
" style="fill: none; stroke: #000000; stroke-linejoin: miter; stroke-linecap: square"/>
   </g>
   <g id="text_14">
    <text style="font-weight: 700; font-size: 13px; font-family: 'Arial'; text-anchor: start" x="31.925836" y="16.505156" transform="rotate(-0 31.925836 16.505156)">A</text>
   </g>
  </g>
  <g id="axes_2">
   <g id="patch_9">
    <path d="M 290.495859 207.67981 
L 491.50452 207.67981 
L 491.50452 23.858028 
L 290.495859 23.858028 
z
" style="fill: #ffffff"/>
   </g>
   <g id="patch_10">
    <path d="M 299.632617 207.67981 
L 354.45316 207.67981 
L 354.45316 23.858028 
L 299.632617 23.858028 
z
" clip-path="url(#pf339a7f9cc)" style="fill: #ddf3de; opacity: 0.38; stroke: #ddf3de; stroke-linejoin: miter"/>
   </g>
   <g id="patch_11">
    <path d="M 354.45316 207.67981 
L 405.619001 207.67981 
L 405.619001 23.858028 
L 354.45316 23.858028 
z
" clip-path="url(#pf339a7f9cc)" style="fill: #cfcece; opacity: 0.38; stroke: #cfcece; stroke-linejoin: miter"/>
   </g>
   <g id="patch_12">
    <path d="M 405.619001 207.67981 
L 427.547219 207.67981 
L 427.547219 23.858028 
L 405.619001 23.858028 
z
" clip-path="url(#pf339a7f9cc)" style="fill: #f6cfcb; opacity: 0.38; stroke: #f6cfcb; stroke-linejoin: miter"/>
   </g>
   <g id="patch_13">
    <path d="M 427.547219 207.67981 
L 482.367763 207.67981 
L 482.367763 23.858028 
L 427.547219 23.858028 
z
" clip-path="url(#pf339a7f9cc)" style="fill: #dce8f4; opacity: 0.38; stroke: #dce8f4; stroke-linejoin: miter"/>
   </g>
   <g id="FillBetweenPolyCollection_2">
    <defs>
     <path id="m1a82f04ea6" d="M 300.546292 -50.598093 
L 300.546292 -46.675223 
L 302.373644 -48.394615 
L 304.200995 -49.019943 
L 306.028347 -48.433622 
L 307.855698 -48.430406 
L 309.68305 -48.302197 
L 311.510401 -48.145235 
L 313.337753 -47.88981 
L 315.165104 -47.668161 
L 316.992456 -47.934836 
L 318.819807 -47.74372 
L 320.647158 -47.582248 
L 322.47451 -48.799812 
L 324.301861 -48.691933 
L 326.129213 -48.645698 
L 327.956564 -48.551331 
L 329.783916 -48.501549 
L 331.611267 -48.389172 
L 333.438619 -48.299756 
L 335.26597 -48.195444 
L 337.093322 -48.342732 
L 338.920673 -48.83022 
L 340.748025 -49.084916 
L 342.575376 -50.07119 
L 344.402727 -50.21262 
L 346.230079 -50.097171 
L 348.05743 -49.947537 
L 349.884782 -49.822144 
L 351.712133 -49.693192 
L 353.539485 -49.569032 
L 355.366836 -49.490037 
L 357.194188 -49.44042 
L 359.021539 -49.843489 
L 360.848891 -51.304979 
L 362.676242 -52.359894 
L 364.503594 -53.163327 
L 366.330945 -53.795497 
L 368.158296 -54.082335 
L 369.985648 -54.688468 
L 371.812999 -54.874947 
L 373.640351 -55.299685 
L 375.467702 -55.900728 
L 377.295054 -56.182285 
L 379.122405 -56.47018 
L 380.949757 -56.880864 
L 382.777108 -57.275552 
L 384.60446 -57.467679 
L 386.431811 -57.465313 
L 388.259162 -57.71608 
L 390.086514 -58.332455 
L 391.913865 -58.807567 
L 393.741217 -62.1646 
L 395.568568 -64.920035 
L 397.39592 -67.2602 
L 399.223271 -67.998574 
L 401.050623 -73.165312 
L 402.877974 -75.501774 
L 404.705326 -75.834572 
L 406.532677 -76.859363 
L 408.360029 -77.138485 
L 410.18738 -77.811859 
L 412.014731 -80.746838 
L 413.842083 -83.335704 
L 415.669434 -89.264451 
L 417.496786 -98.313179 
L 419.324137 -100.765113 
L 421.151489 -102.204472 
L 422.97884 -103.711431 
L 424.806192 -106.992685 
L 426.633543 -109.65562 
L 428.460895 -112.893443 
L 430.288246 -120.070495 
L 432.115598 -127.763715 
L 433.942949 -134.977826 
L 435.7703 -140.992048 
L 437.597652 -144.585567 
L 439.425003 -147.312847 
L 441.252355 -148.43211 
L 443.079706 -148.698692 
L 444.907058 -148.575287 
L 446.734409 -148.326901 
L 448.561761 -147.785439 
L 450.389112 -147.109538 
L 452.216464 -146.276423 
L 454.043815 -145.44038 
L 455.871167 -144.938046 
L 457.698518 -144.321307 
L 459.525869 -143.879197 
L 461.353221 -143.709925 
L 463.180572 -143.772923 
L 465.007924 -143.436463 
L 466.835275 -143.246104 
L 468.662627 -142.83082 
L 470.489978 -142.089877 
L 472.31733 -141.234942 
L 474.144681 -140.376169 
L 475.972033 -139.640937 
L 477.799384 -138.914245 
L 479.626736 -138.177041 
L 481.454087 -137.410857 
L 481.454087 -193.520211 
L 481.454087 -193.520211 
L 479.626736 -194.1021 
L 477.799384 -194.60564 
L 475.972033 -194.805973 
L 474.144681 -195.178546 
L 472.31733 -196.100064 
L 470.489978 -197.128906 
L 468.662627 -198.557639 
L 466.835275 -200.172471 
L 465.007924 -201.834718 
L 463.180572 -203.534803 
L 461.353221 -205.30819 
L 459.525869 -207.08626 
L 457.698518 -208.890792 
L 455.871167 -210.68982 
L 454.043815 -212.374043 
L 452.216464 -213.785934 
L 450.389112 -210.230571 
L 448.561761 -205.295782 
L 446.734409 -201.571216 
L 444.907058 -199.067149 
L 443.079706 -198.376144 
L 441.252355 -198.613742 
L 439.425003 -197.724367 
L 437.597652 -195.621958 
L 435.7703 -191.995422 
L 433.942949 -188.53047 
L 432.115598 -183.701293 
L 430.288246 -176.573395 
L 428.460895 -169.308133 
L 426.633543 -165.167755 
L 424.806192 -163.222829 
L 422.97884 -161.322361 
L 421.151489 -153.205958 
L 419.324137 -138.128129 
L 417.496786 -123.026405 
L 415.669434 -115.749508 
L 413.842083 -109.675763 
L 412.014731 -105.339292 
L 410.18738 -102.910664 
L 408.360029 -98.597737 
L 406.532677 -97.878363 
L 404.705326 -96.953019 
L 402.877974 -93.611981 
L 401.050623 -92.888037 
L 399.223271 -91.06402 
L 397.39592 -88.798713 
L 395.568568 -87.48554 
L 393.741217 -86.141078 
L 391.913865 -84.446368 
L 390.086514 -81.724695 
L 388.259162 -80.665216 
L 386.431811 -80.844037 
L 384.60446 -81.285381 
L 382.777108 -81.815037 
L 380.949757 -79.346426 
L 379.122405 -77.443708 
L 377.295054 -76.615772 
L 375.467702 -76.843422 
L 373.640351 -77.051356 
L 371.812999 -71.961722 
L 369.985648 -70.354586 
L 368.158296 -69.745686 
L 366.330945 -69.733211 
L 364.503594 -69.92885 
L 362.676242 -65.899187 
L 360.848891 -62.395346 
L 359.021539 -59.834014 
L 357.194188 -58.057552 
L 355.366836 -56.845605 
L 353.539485 -56.938023 
L 351.712133 -56.993873 
L 349.884782 -57.241773 
L 348.05743 -57.319772 
L 346.230079 -57.43748 
L 344.402727 -57.853254 
L 342.575376 -58.286933 
L 340.748025 -58.817348 
L 338.920673 -59.400968 
L 337.093322 -60.075784 
L 335.26597 -60.847558 
L 333.438619 -61.698841 
L 331.611267 -62.620675 
L 329.783916 -63.515313 
L 327.956564 -64.494362 
L 326.129213 -61.0223 
L 324.301861 -60.805726 
L 322.47451 -58.123731 
L 320.647158 -56.503517 
L 318.819807 -56.734821 
L 316.992456 -56.085247 
L 315.165104 -55.682516 
L 313.337753 -55.473096 
L 311.510401 -54.742753 
L 309.68305 -53.293299 
L 307.855698 -53.668019 
L 306.028347 -54.001209 
L 304.200995 -53.385971 
L 302.373644 -52.374029 
L 300.546292 -50.598093 
z
"/>
    </defs>
    <g clip-path="url(#pf339a7f9cc)">
     <use xlink:href="#m1a82f04ea6" x="0" y="245.999497" style="fill: #0f4d92; fill-opacity: 0.16"/>
    </g>
   </g>
   <g id="matplotlib.axis_3">
    <g id="xtick_7">
     <g id="line2d_13">
      <g>
       <use xlink:href="#mb2167cf1d7" x="298.718941" y="207.67981" style="stroke: #000000; stroke-width: 0.8"/>
      </g>
     </g>
     <g id="text_15">
      <text style="font-size: 11px; font-family: 'Arial'; text-anchor: middle" x="298.718941" y="222.553404" transform="rotate(-0 298.718941 222.553404)">0</text>
     </g>
    </g>
    <g id="xtick_8">
     <g id="line2d_14">
      <g>
       <use xlink:href="#mb2167cf1d7" x="335.26597" y="207.67981" style="stroke: #000000; stroke-width: 0.8"/>
      </g>
     </g>
     <g id="text_16">
      <text style="font-size: 11px; font-family: 'Arial'; text-anchor: middle" x="335.26597" y="222.553404" transform="rotate(-0 335.26597 222.553404)">20</text>
     </g>
    </g>
    <g id="xtick_9">
     <g id="line2d_15">
      <g>
       <use xlink:href="#mb2167cf1d7" x="371.812999" y="207.67981" style="stroke: #000000; stroke-width: 0.8"/>
      </g>
     </g>
     <g id="text_17">
      <text style="font-size: 11px; font-family: 'Arial'; text-anchor: middle" x="371.812999" y="222.553404" transform="rotate(-0 371.812999 222.553404)">40</text>
     </g>
    </g>
    <g id="xtick_10">
     <g id="line2d_16">
      <g>
       <use xlink:href="#mb2167cf1d7" x="408.360029" y="207.67981" style="stroke: #000000; stroke-width: 0.8"/>
      </g>
     </g>
     <g id="text_18">
      <text style="font-size: 11px; font-family: 'Arial'; text-anchor: middle" x="408.360029" y="222.553404" transform="rotate(-0 408.360029 222.553404)">60</text>
     </g>
    </g>
    <g id="xtick_11">
     <g id="line2d_17">
      <g>
       <use xlink:href="#mb2167cf1d7" x="444.907058" y="207.67981" style="stroke: #000000; stroke-width: 0.8"/>
      </g>
     </g>
     <g id="text_19">
      <text style="font-size: 11px; font-family: 'Arial'; text-anchor: middle" x="444.907058" y="222.553404" transform="rotate(-0 444.907058 222.553404)">80</text>
     </g>
    </g>
    <g id="xtick_12">
     <g id="line2d_18">
      <g>
       <use xlink:href="#mb2167cf1d7" x="481.454087" y="207.67981" style="stroke: #000000; stroke-width: 0.8"/>
      </g>
     </g>
     <g id="text_20">
      <text style="font-size: 11px; font-family: 'Arial'; text-anchor: middle" x="481.454087" y="222.553404" transform="rotate(-0 481.454087 222.553404)">100</text>
     </g>
    </g>
    <g id="text_21">
     <text style="font-size: 11px; font-family: 'Arial'; text-anchor: middle" x="391.00019" y="236.613247" transform="rotate(-0 391.00019 236.613247)">Episode</text>
    </g>
   </g>
   <g id="matplotlib.axis_4">
    <g id="ytick_6">
     <g id="line2d_19">
      <g>
       <use xlink:href="#m3ce429d977" x="290.495859" y="202.277267" style="stroke: #000000; stroke-width: 0.8"/>
      </g>
     </g>
     <g id="text_22">
      <text style="font-size: 11px; font-family: 'Arial'; text-anchor: end" x="283.495859" y="206.214064" transform="rotate(-0 283.495859 206.214064)">0</text>
     </g>
    </g>
    <g id="ytick_7">
     <g id="line2d_20">
      <g>
       <use xlink:href="#m3ce429d977" x="290.495859" y="163.683491" style="stroke: #000000; stroke-width: 0.8"/>
      </g>
     </g>
     <g id="text_23">
      <text style="font-size: 11px; font-family: 'Arial'; text-anchor: end" x="283.495859" y="167.620288" transform="rotate(-0 283.495859 167.620288)">2</text>
     </g>
    </g>
    <g id="ytick_8">
     <g id="line2d_21">
      <g>
       <use xlink:href="#m3ce429d977" x="290.495859" y="125.089715" style="stroke: #000000; stroke-width: 0.8"/>
      </g>
     </g>
     <g id="text_24">
      <text style="font-size: 11px; font-family: 'Arial'; text-anchor: end" x="283.495859" y="129.026512" transform="rotate(-0 283.495859 129.026512)">4</text>
     </g>
    </g>
    <g id="ytick_9">
     <g id="line2d_22">
      <g>
       <use xlink:href="#m3ce429d977" x="290.495859" y="86.49594" style="stroke: #000000; stroke-width: 0.8"/>
      </g>
     </g>
     <g id="text_25">
      <text style="font-size: 11px; font-family: 'Arial'; text-anchor: end" x="283.495859" y="90.432737" transform="rotate(-0 283.495859 90.432737)">6</text>
     </g>
    </g>
    <g id="ytick_10">
     <g id="line2d_23">
      <g>
       <use xlink:href="#m3ce429d977" x="290.495859" y="47.902164" style="stroke: #000000; stroke-width: 0.8"/>
      </g>
     </g>
     <g id="text_26">
      <text style="font-size: 11px; font-family: 'Arial'; text-anchor: end" x="283.495859" y="51.838961" transform="rotate(-0 283.495859 51.838961)">8</text>
     </g>
    </g>
    <g id="text_27">
     <text style="font-size: 11px; font-family: 'Arial'; text-anchor: middle" x="271.063672" y="115.768919" transform="rotate(-90 271.063672 115.768919)">Average regret (estimated)</text>
    </g>
    <g id="text_28">
     <text style="font-size: 11px; font-family: 'Arial'; text-anchor: start" x="290.495859" y="20.858028" transform="rotate(-0 290.495859 20.858028)">1e−5</text>
    </g>
   </g>
   <g id="line2d_24">
    <path d="M 300.546292 198.098711 
L 302.373644 195.449193 
L 304.200995 193.199671 
L 306.028347 193.915148 
L 307.855698 194.749154 
L 309.68305 195.148599 
L 311.510401 195.51625 
L 313.337753 195.933152 
L 315.165104 196.284268 
L 316.992456 196.070715 
L 318.819807 196.440222 
L 320.647158 196.728852 
L 322.47451 196.988083 
L 324.301861 196.012895 
L 326.129213 193.40914 
L 327.956564 193.253878 
L 329.783916 193.082738 
L 331.611267 193.131019 
L 333.438619 193.394984 
L 335.26597 193.658 
L 337.093322 193.964066 
L 338.920673 194.270858 
L 340.748025 194.55109 
L 342.575376 194.795972 
L 344.402727 194.432434 
L 346.230079 193.255118 
L 348.05743 191.937197 
L 349.884782 192.199746 
L 351.712133 192.444036 
L 353.539485 192.684978 
L 355.366836 192.835539 
L 357.194188 193.00404 
L 359.021539 192.943028 
L 360.848891 191.23462 
L 362.676242 189.917077 
L 364.503594 188.169986 
L 366.330945 186.500357 
L 368.158296 183.42232 
L 369.985648 181.185682 
L 371.812999 179.683762 
L 373.640351 179.133064 
L 375.467702 178.296611 
L 377.295054 178.140288 
L 379.122405 177.762057 
L 380.949757 177.499091 
L 382.777108 177.003736 
L 384.60446 176.644673 
L 386.431811 176.282825 
L 388.259162 176.687788 
L 390.086514 176.392167 
L 391.913865 174.486884 
L 393.741217 172.462153 
L 395.568568 170.317581 
L 397.39592 168.990513 
L 399.223271 167.72362 
L 401.050623 167.582949 
L 402.877974 163.606902 
L 404.705326 159.711353 
L 406.532677 159.251278 
L 408.360029 158.379408 
L 410.18738 157.92742 
L 412.014731 157.137191 
L 413.842083 144.381125 
L 415.669434 133.187955 
L 417.496786 125.565574 
L 419.324137 117.075443 
L 421.151489 107.798736 
L 422.97884 101.433435 
L 424.806192 100.432519 
L 426.633543 99.691725 
L 428.460895 94.465588 
L 430.288246 87.503347 
L 432.115598 82.811542 
L 433.942949 75.872777 
L 435.7703 70.088702 
L 437.597652 68.224492 
L 439.425003 67.757992 
L 441.252355 68.613525 
L 443.079706 69.550086 
L 444.907058 70.328518 
L 446.734409 71.477268 
L 448.561761 72.830552 
L 450.389112 74.195858 
L 452.216464 75.674875 
L 454.043815 77.091243 
L 455.871167 78.399469 
L 457.698518 79.607474 
L 459.525869 80.734658 
L 461.353221 81.826903 
L 463.180572 82.928182 
L 465.007924 84.086912 
L 466.835275 85.258517 
L 468.662627 86.418616 
L 470.489978 87.439776 
L 472.31733 88.494533 
L 474.144681 89.304854 
L 475.972033 89.880848 
L 477.799384 89.883318 
L 479.626736 88.852099 
L 481.454087 87.345492 
" clip-path="url(#pf339a7f9cc)" style="fill: none; stroke: #0f4d92; stroke-width: 1.8; stroke-linecap: square"/>
   </g>
   <g id="patch_14">
    <path d="M 290.495859 207.67981 
L 290.495859 23.858028 
" style="fill: none; stroke: #000000; stroke-linejoin: miter; stroke-linecap: square"/>
   </g>
   <g id="patch_15">
    <path d="M 290.495859 207.67981 
L 491.50452 207.67981 
" style="fill: none; stroke: #000000; stroke-linejoin: miter; stroke-linecap: square"/>
   </g>
   <g id="text_29">
    <text style="font-weight: 700; font-size: 13px; font-family: 'Arial'; text-anchor: start" x="266.37482" y="16.505156" transform="rotate(-0 266.37482 16.505156)">B</text>
   </g>
  </g>
  <g id="axes_3">
   <g id="patch_16">
    <path d="M 558.585938 207.67981 
L 759.594598 207.67981 
L 759.594598 23.858028 
L 558.585938 23.858028 
z
" style="fill: #ffffff"/>
   </g>
   <g id="patch_17">
    <path d="M 567.722695 207.67981 
L 622.543239 207.67981 
L 622.543239 23.858028 
L 567.722695 23.858028 
z
" clip-path="url(#p435dc1b03a)" style="fill: #ddf3de; opacity: 0.38; stroke: #ddf3de; stroke-linejoin: miter"/>
   </g>
   <g id="patch_18">
    <path d="M 622.543239 207.67981 
L 673.709079 207.67981 
L 673.709079 23.858028 
L 622.543239 23.858028 
z
" clip-path="url(#p435dc1b03a)" style="fill: #cfcece; opacity: 0.38; stroke: #cfcece; stroke-linejoin: miter"/>
   </g>
   <g id="patch_19">
    <path d="M 673.709079 207.67981 
L 695.637297 207.67981 
L 695.637297 23.858028 
L 673.709079 23.858028 
z
" clip-path="url(#p435dc1b03a)" style="fill: #f6cfcb; opacity: 0.38; stroke: #f6cfcb; stroke-linejoin: miter"/>
   </g>
   <g id="patch_20">
    <path d="M 695.637297 207.67981 
L 750.457841 207.67981 
L 750.457841 23.858028 
L 695.637297 23.858028 
z
" clip-path="url(#p435dc1b03a)" style="fill: #dce8f4; opacity: 0.38; stroke: #dce8f4; stroke-linejoin: miter"/>
   </g>
   <g id="FillBetweenPolyCollection_3">
    <defs>
     <path id="m421aec1118" d="M 568.636371 -48.103484 
L 568.636371 -46.675223 
L 570.463722 -47.102538 
L 572.291073 -47.282501 
L 574.118425 -47.026633 
L 575.945776 -47.43869 
L 577.773128 -47.379381 
L 579.600479 -47.400916 
L 581.427831 -47.220258 
L 583.255182 -47.126175 
L 585.082534 -47.295759 
L 586.909885 -47.971897 
L 588.737237 -47.96505 
L 590.564588 -48.555871 
L 592.39194 -48.376015 
L 594.219291 -48.361179 
L 596.046642 -48.336218 
L 597.873994 -48.243923 
L 599.701345 -48.116747 
L 601.528697 -48.085897 
L 603.356048 -49.107834 
L 605.1834 -49.055852 
L 607.010751 -49.035016 
L 608.838103 -49.090063 
L 610.665454 -50.87651 
L 612.492806 -50.69283 
L 614.320157 -50.606232 
L 616.147508 -50.445727 
L 617.97486 -50.344887 
L 619.802211 -50.204209 
L 621.629563 -50.071802 
L 623.456914 -50.417019 
L 625.284266 -50.478164 
L 627.111617 -51.896186 
L 628.938969 -52.963595 
L 630.76632 -53.797652 
L 632.593672 -53.644525 
L 634.421023 -53.746551 
L 636.248375 -54.9634 
L 638.075726 -54.851946 
L 639.903077 -54.956634 
L 641.730429 -54.824672 
L 643.55778 -54.954408 
L 645.385132 -56.188284 
L 647.212483 -56.236651 
L 649.039835 -56.020713 
L 650.867186 -56.224699 
L 652.694538 -56.134089 
L 654.521889 -56.379197 
L 656.349241 -57.195593 
L 658.176592 -57.396049 
L 660.003944 -58.610938 
L 661.831295 -62.808033 
L 663.658646 -64.019628 
L 665.485998 -63.771275 
L 667.313349 -68.413551 
L 669.140701 -68.053426 
L 670.968052 -68.99234 
L 672.795404 -69.764296 
L 674.622755 -72.17395 
L 676.450107 -78.871329 
L 678.277458 -83.670371 
L 680.10481 -94.524285 
L 681.932161 -109.416235 
L 683.759513 -122.237333 
L 685.586864 -138.86904 
L 687.414215 -157.590487 
L 689.241567 -163.479113 
L 691.068918 -163.407775 
L 692.89627 -166.443522 
L 694.723621 -168.762152 
L 696.550973 -169.790826 
L 698.378324 -174.388986 
L 700.205676 -177.207115 
L 702.033027 -180.189818 
L 703.860379 -180.016789 
L 705.68773 -178.828197 
L 707.515082 -178.182075 
L 709.342433 -176.549767 
L 711.169784 -175.814627 
L 712.997136 -174.339513 
L 714.824487 -173.04927 
L 716.651839 -171.929929 
L 718.47919 -173.284727 
L 720.306542 -171.77612 
L 722.133893 -171.288926 
L 723.961245 -171.072741 
L 725.788596 -170.029354 
L 727.615948 -168.634424 
L 729.443299 -167.381614 
L 731.27065 -166.062142 
L 733.098002 -164.745114 
L 734.925353 -163.525329 
L 736.752705 -162.2647 
L 738.580056 -161.040577 
L 740.407408 -159.935134 
L 742.234759 -158.786422 
L 744.062111 -157.827112 
L 745.889462 -156.816132 
L 747.716814 -155.723777 
L 749.544165 -154.654073 
L 749.544165 -188.6649 
L 749.544165 -188.6649 
L 747.716814 -189.737238 
L 745.889462 -190.928869 
L 744.062111 -190.517819 
L 742.234759 -190.829327 
L 740.407408 -192.097262 
L 738.580056 -192.622217 
L 736.752705 -193.649772 
L 734.925353 -195.192248 
L 733.098002 -196.821902 
L 731.27065 -198.391945 
L 729.443299 -200.096029 
L 727.615948 -201.836211 
L 725.788596 -203.622622 
L 723.961245 -205.451973 
L 722.133893 -207.323727 
L 720.306542 -209.017516 
L 718.47919 -210.901014 
L 716.651839 -212.716739 
L 714.824487 -213.785934 
L 712.997136 -210.433547 
L 711.169784 -207.201078 
L 709.342433 -208.321907 
L 707.515082 -209.811044 
L 705.68773 -211.804502 
L 703.860379 -211.843171 
L 702.033027 -211.429252 
L 700.205676 -210.337095 
L 698.378324 -205.936515 
L 696.550973 -198.056783 
L 694.723621 -195.136343 
L 692.89627 -188.77448 
L 691.068918 -181.072454 
L 689.241567 -177.535618 
L 687.414215 -170.54367 
L 685.586864 -160.605218 
L 683.759513 -148.49879 
L 681.932161 -130.644668 
L 680.10481 -121.780526 
L 678.277458 -111.31928 
L 676.450107 -91.515793 
L 674.622755 -85.343234 
L 672.795404 -84.877931 
L 670.968052 -85.371864 
L 669.140701 -84.681627 
L 667.313349 -84.654539 
L 665.485998 -84.199497 
L 663.658646 -83.891671 
L 661.831295 -82.889516 
L 660.003944 -82.540831 
L 658.176592 -81.163687 
L 656.349241 -80.36787 
L 654.521889 -80.745548 
L 652.694538 -78.087441 
L 650.867186 -75.822294 
L 649.039835 -74.899566 
L 647.212483 -71.88462 
L 645.385132 -70.573056 
L 643.55778 -71.066429 
L 641.730429 -71.412586 
L 639.903077 -71.652669 
L 638.075726 -70.934324 
L 636.248375 -70.41528 
L 634.421023 -67.981227 
L 632.593672 -67.685764 
L 630.76632 -67.913231 
L 628.938969 -68.478548 
L 627.111617 -60.671157 
L 625.284266 -59.133079 
L 623.456914 -56.264507 
L 621.629563 -56.188929 
L 619.802211 -56.460891 
L 617.97486 -56.783217 
L 616.147508 -56.659851 
L 614.320157 -55.814574 
L 612.492806 -55.680907 
L 610.665454 -56.089816 
L 608.838103 -56.501069 
L 607.010751 -56.937973 
L 605.1834 -57.461712 
L 603.356048 -58.036423 
L 601.528697 -58.675528 
L 599.701345 -59.357601 
L 597.873994 -60.147864 
L 596.046642 -61.03327 
L 594.219291 -61.989181 
L 592.39194 -58.343531 
L 590.564588 -59.294434 
L 588.737237 -60.336894 
L 586.909885 -61.622359 
L 585.082534 -63.193594 
L 583.255182 -55.385364 
L 581.427831 -56.534134 
L 579.600479 -54.488746 
L 577.773128 -50.193456 
L 575.945776 -50.518683 
L 574.118425 -51.636056 
L 572.291073 -52.265794 
L 570.463722 -50.438262 
L 568.636371 -48.103484 
z
"/>
    </defs>
    <g clip-path="url(#p435dc1b03a)">
     <use xlink:href="#m421aec1118" x="0" y="245.999497" style="fill: #0f4d92; fill-opacity: 0.16"/>
    </g>
   </g>
   <g id="matplotlib.axis_5">
    <g id="xtick_13">
     <g id="line2d_25">
      <g>
       <use xlink:href="#mb2167cf1d7" x="566.809019" y="207.67981" style="stroke: #000000; stroke-width: 0.8"/>
      </g>
     </g>
     <g id="text_30">
      <text style="font-size: 11px; font-family: 'Arial'; text-anchor: middle" x="566.809019" y="222.553404" transform="rotate(-0 566.809019 222.553404)">0</text>
     </g>
    </g>
    <g id="xtick_14">
     <g id="line2d_26">
      <g>
       <use xlink:href="#mb2167cf1d7" x="603.356048" y="207.67981" style="stroke: #000000; stroke-width: 0.8"/>
      </g>
     </g>
     <g id="text_31">
      <text style="font-size: 11px; font-family: 'Arial'; text-anchor: middle" x="603.356048" y="222.553404" transform="rotate(-0 603.356048 222.553404)">20</text>
     </g>
    </g>
    <g id="xtick_15">
     <g id="line2d_27">
      <g>
       <use xlink:href="#mb2167cf1d7" x="639.903077" y="207.67981" style="stroke: #000000; stroke-width: 0.8"/>
      </g>
     </g>
     <g id="text_32">
      <text style="font-size: 11px; font-family: 'Arial'; text-anchor: middle" x="639.903077" y="222.553404" transform="rotate(-0 639.903077 222.553404)">40</text>
     </g>
    </g>
    <g id="xtick_16">
     <g id="line2d_28">
      <g>
       <use xlink:href="#mb2167cf1d7" x="676.450107" y="207.67981" style="stroke: #000000; stroke-width: 0.8"/>
      </g>
     </g>
     <g id="text_33">
      <text style="font-size: 11px; font-family: 'Arial'; text-anchor: middle" x="676.450107" y="222.553404" transform="rotate(-0 676.450107 222.553404)">60</text>
     </g>
    </g>
    <g id="xtick_17">
     <g id="line2d_29">
      <g>
       <use xlink:href="#mb2167cf1d7" x="712.997136" y="207.67981" style="stroke: #000000; stroke-width: 0.8"/>
      </g>
     </g>
     <g id="text_34">
      <text style="font-size: 11px; font-family: 'Arial'; text-anchor: middle" x="712.997136" y="222.553404" transform="rotate(-0 712.997136 222.553404)">80</text>
     </g>
    </g>
    <g id="xtick_18">
     <g id="line2d_30">
      <g>
       <use xlink:href="#mb2167cf1d7" x="749.544165" y="207.67981" style="stroke: #000000; stroke-width: 0.8"/>
      </g>
     </g>
     <g id="text_35">
      <text style="font-size: 11px; font-family: 'Arial'; text-anchor: middle" x="749.544165" y="222.553404" transform="rotate(-0 749.544165 222.553404)">100</text>
     </g>
    </g>
    <g id="text_36">
     <text style="font-size: 11px; font-family: 'Arial'; text-anchor: middle" x="659.090268" y="236.613247" transform="rotate(-0 659.090268 236.613247)">Episode</text>
    </g>
   </g>
   <g id="matplotlib.axis_6">
    <g id="ytick_11">
     <g id="line2d_31">
      <g>
       <use xlink:href="#m3ce429d977" x="558.585938" y="200.399417" style="stroke: #000000; stroke-width: 0.8"/>
      </g>
     </g>
     <g id="text_37">
      <text style="font-size: 11px; font-family: 'Arial'; text-anchor: end" x="551.585938" y="204.336214" transform="rotate(-0 551.585938 204.336214)">0.00000</text>
     </g>
    </g>
    <g id="ytick_12">
     <g id="line2d_32">
      <g>
       <use xlink:href="#m3ce429d977" x="558.585938" y="165.270815" style="stroke: #000000; stroke-width: 0.8"/>
      </g>
     </g>
     <g id="text_38">
      <text style="font-size: 11px; font-family: 'Arial'; text-anchor: end" x="551.585938" y="169.207612" transform="rotate(-0 551.585938 169.207612)">0.00005</text>
     </g>
    </g>
    <g id="ytick_13">
     <g id="line2d_33">
      <g>
       <use xlink:href="#m3ce429d977" x="558.585938" y="130.142214" style="stroke: #000000; stroke-width: 0.8"/>
      </g>
     </g>
     <g id="text_39">
      <text style="font-size: 11px; font-family: 'Arial'; text-anchor: end" x="551.585938" y="134.079011" transform="rotate(-0 551.585938 134.079011)">0.00010</text>
     </g>
    </g>
    <g id="ytick_14">
     <g id="line2d_34">
      <g>
       <use xlink:href="#m3ce429d977" x="558.585938" y="95.013612" style="stroke: #000000; stroke-width: 0.8"/>
      </g>
     </g>
     <g id="text_40">
      <text style="font-size: 11px; font-family: 'Arial'; text-anchor: end" x="551.585938" y="98.950409" transform="rotate(-0 551.585938 98.950409)">0.00015</text>
     </g>
    </g>
    <g id="ytick_15">
     <g id="line2d_35">
      <g>
       <use xlink:href="#m3ce429d977" x="558.585938" y="59.885011" style="stroke: #000000; stroke-width: 0.8"/>
      </g>
     </g>
     <g id="text_41">
      <text style="font-size: 11px; font-family: 'Arial'; text-anchor: end" x="551.585938" y="63.821808" transform="rotate(-0 551.585938 63.821808)">0.00020</text>
     </g>
    </g>
    <g id="ytick_16">
     <g id="line2d_36">
      <g>
       <use xlink:href="#m3ce429d977" x="558.585938" y="24.756409" style="stroke: #000000; stroke-width: 0.8"/>
      </g>
     </g>
     <g id="text_42">
      <text style="font-size: 11px; font-family: 'Arial'; text-anchor: end" x="551.585938" y="28.693206" transform="rotate(-0 551.585938 28.693206)">0.00025</text>
     </g>
    </g>
    <g id="text_43">
     <text style="font-size: 11px; font-family: 'Arial'; text-anchor: middle" x="505.512656" y="115.768919" transform="rotate(-90 505.512656 115.768919)">Average squared residual (estimated)</text>
    </g>
   </g>
   <g id="line2d_37">
    <path d="M 568.636371 198.878064 
L 570.463722 197.118211 
L 572.291073 196.13354 
L 574.118425 197.062787 
L 575.945776 197.478946 
L 577.773128 197.235341 
L 579.600479 196.793917 
L 581.427831 197.191591 
L 583.255182 197.501387 
L 585.082534 197.547711 
L 586.909885 197.392079 
L 588.737237 196.209905 
L 590.564588 195.631724 
L 592.39194 193.503609 
L 594.219291 192.831525 
L 596.046642 192.760741 
L 597.873994 192.840425 
L 599.701345 193.243766 
L 601.528697 193.582981 
L 603.356048 193.643844 
L 605.1834 193.88845 
L 607.010751 194.033645 
L 608.838103 194.280886 
L 610.665454 194.08196 
L 612.492806 193.890985 
L 614.320157 193.524682 
L 616.147508 193.760489 
L 617.97486 193.661347 
L 619.802211 193.741672 
L 621.629563 193.735157 
L 623.456914 192.81467 
L 625.284266 192.821636 
L 627.111617 190.699895 
L 628.938969 188.694066 
L 630.76632 187.963515 
L 632.593672 187.895449 
L 634.421023 186.21615 
L 636.248375 181.900902 
L 638.075726 181.954686 
L 639.903077 181.909333 
L 641.730429 181.528947 
L 643.55778 181.438421 
L 645.385132 181.723141 
L 647.212483 181.654493 
L 649.039835 181.970128 
L 650.867186 182.294666 
L 652.694538 182.610608 
L 654.521889 182.71787 
L 656.349241 178.749437 
L 658.176592 178.769659 
L 660.003944 177.842888 
L 661.831295 176.072089 
L 663.658646 174.476925 
L 665.485998 174.70798 
L 667.313349 174.384409 
L 669.140701 170.177466 
L 670.968052 169.132846 
L 672.795404 168.643941 
L 674.622755 166.590675 
L 676.450107 160.674812 
L 678.277458 148.688662 
L 680.10481 144.161525 
L 681.932161 122.913755 
L 683.759513 110.493865 
L 685.586864 100.884322 
L 687.414215 83.699106 
L 689.241567 77.721785 
L 691.068918 70.993561 
L 692.89627 63.808678 
L 694.723621 61.227917 
L 696.550973 53.90527 
L 698.378324 51.243714 
L 700.205676 49.818479 
L 702.033027 49.22627 
L 703.860379 50.615414 
L 705.68773 52.37742 
L 707.515082 53.768681 
L 709.342433 55.044819 
L 711.169784 55.657674 
L 712.997136 57.169947 
L 714.824487 58.767279 
L 716.651839 60.443253 
L 718.47919 62.096547 
L 720.306542 63.694632 
L 722.133893 64.995347 
L 723.961245 66.350305 
L 725.788596 67.484945 
L 727.615948 68.377995 
L 729.443299 69.604662 
L 731.27065 70.900282 
L 733.098002 72.311003 
L 734.925353 73.411336 
L 736.752705 74.572909 
L 738.580056 75.904209 
L 740.407408 77.184487 
L 742.234759 77.946117 
L 744.062111 78.387346 
L 745.889462 78.116896 
L 747.716814 77.104032 
L 749.544165 77.237975 
" clip-path="url(#p435dc1b03a)" style="fill: none; stroke: #0f4d92; stroke-width: 1.8; stroke-linecap: square"/>
   </g>
   <g id="patch_21">
    <path d="M 558.585938 207.67981 
L 558.585938 23.858028 
" style="fill: none; stroke: #000000; stroke-linejoin: miter; stroke-linecap: square"/>
   </g>
   <g id="patch_22">
    <path d="M 558.585938 207.67981 
L 759.594598 207.67981 
" style="fill: none; stroke: #000000; stroke-linejoin: miter; stroke-linecap: square"/>
   </g>
   <g id="text_44">
    <text style="font-weight: 700; font-size: 13px; font-family: 'Arial'; text-anchor: start" x="534.464898" y="16.505156" transform="rotate(-0 534.464898 16.505156)">C</text>
   </g>
  </g>
  <g id="axes_4">
   <g id="patch_23">
    <path d="M 808.190859 207.67981 
L 1009.19952 207.67981 
L 1009.19952 23.858028 
L 808.190859 23.858028 
z
" style="fill: #ffffff"/>
   </g>
   <g id="patch_24">
    <path d="M 817.327617 207.67981 
L 872.14816 207.67981 
L 872.14816 23.858028 
L 817.327617 23.858028 
z
" clip-path="url(#p54d39d963e)" style="fill: #ddf3de; opacity: 0.38; stroke: #ddf3de; stroke-linejoin: miter"/>
   </g>
   <g id="patch_25">
    <path d="M 872.14816 207.67981 
L 923.314001 207.67981 
L 923.314001 23.858028 
L 872.14816 23.858028 
z
" clip-path="url(#p54d39d963e)" style="fill: #cfcece; opacity: 0.38; stroke: #cfcece; stroke-linejoin: miter"/>
   </g>
   <g id="patch_26">
    <path d="M 923.314001 207.67981 
L 945.242219 207.67981 
L 945.242219 23.858028 
L 923.314001 23.858028 
z
" clip-path="url(#p54d39d963e)" style="fill: #f6cfcb; opacity: 0.38; stroke: #f6cfcb; stroke-linejoin: miter"/>
   </g>
   <g id="patch_27">
    <path d="M 945.242219 207.67981 
L 1000.062763 207.67981 
L 1000.062763 23.858028 
L 945.242219 23.858028 
z
" clip-path="url(#p54d39d963e)" style="fill: #dce8f4; opacity: 0.38; stroke: #dce8f4; stroke-linejoin: miter"/>
   </g>
   <g id="FillBetweenPolyCollection_4">
    <defs>
     <path id="mf995f4fd05" d="M 818.241292 -49.30762 
L 818.241292 -47.911637 
L 820.068644 -47.669252 
L 821.895995 -48.278515 
L 823.723347 -46.942887 
L 825.550698 -47.28607 
L 827.37805 -47.04113 
L 829.205401 -46.987611 
L 831.032753 -47.072715 
L 832.860104 -46.675223 
L 834.687456 -47.176477 
L 836.514807 -47.020822 
L 838.342158 -47.512171 
L 840.16951 -46.98689 
L 841.996861 -47.407716 
L 843.824213 -47.340703 
L 845.651564 -47.500614 
L 847.478916 -47.077908 
L 849.306267 -46.885365 
L 851.133619 -47.054611 
L 852.96097 -46.809845 
L 854.788322 -47.020983 
L 856.615673 -47.434078 
L 858.443025 -47.173367 
L 860.270376 -47.326924 
L 862.097727 -47.302793 
L 863.925079 -47.343781 
L 865.75243 -47.05773 
L 867.579782 -48.023948 
L 869.407133 -47.489726 
L 871.234485 -47.410858 
L 873.061836 -50.049425 
L 874.889188 -52.29022 
L 876.716539 -52.02846 
L 878.543891 -49.957097 
L 880.371242 -51.428309 
L 882.198594 -49.759361 
L 884.025945 -49.411083 
L 885.853296 -49.82498 
L 887.680648 -51.227982 
L 889.507999 -49.380278 
L 891.335351 -49.602816 
L 893.162702 -49.641052 
L 894.990054 -48.528839 
L 896.817405 -48.445851 
L 898.644757 -50.201208 
L 900.472108 -50.236814 
L 902.29946 -49.704761 
L 904.126811 -51.918013 
L 905.954162 -50.824931 
L 907.781514 -50.178461 
L 909.608865 -50.155059 
L 911.436217 -51.686691 
L 913.263568 -58.148445 
L 915.09092 -52.601434 
L 916.918271 -49.459101 
L 918.745623 -53.391356 
L 920.572974 -51.145113 
L 922.400326 -52.267809 
L 924.227677 -89.82871 
L 926.055029 -106.471687 
L 927.88238 -126.375347 
L 929.709731 -144.857502 
L 931.537083 -150.56845 
L 933.364434 -146.905058 
L 935.191786 -172.43728 
L 937.019137 -128.589477 
L 938.846489 -145.882929 
L 940.67384 -128.684412 
L 942.501192 -121.098094 
L 944.328543 -126.520883 
L 946.155895 -69.648029 
L 947.983246 -83.580603 
L 949.810598 -79.993891 
L 951.637949 -71.166563 
L 953.4653 -55.326918 
L 955.292652 -53.382128 
L 957.120003 -55.30717 
L 958.947355 -51.016151 
L 960.774706 -56.320222 
L 962.602058 -53.544289 
L 964.429409 -49.404002 
L 966.256761 -48.507655 
L 968.084112 -49.909237 
L 969.911464 -49.410319 
L 971.738815 -52.569826 
L 973.566167 -48.729236 
L 975.393518 -48.027373 
L 977.220869 -47.970173 
L 979.048221 -48.384197 
L 980.875572 -49.111547 
L 982.702924 -48.910544 
L 984.530275 -48.501033 
L 986.357627 -47.972599 
L 988.184978 -47.557073 
L 990.01233 -48.661139 
L 991.839681 -47.524364 
L 993.667033 -48.906774 
L 995.494384 -47.920704 
L 997.321736 -50.65264 
L 999.149087 -51.046938 
L 999.149087 -60.640405 
L 999.149087 -60.640405 
L 997.321736 -57.319017 
L 995.494384 -67.171182 
L 993.667033 -66.256091 
L 991.839681 -58.651268 
L 990.01233 -56.618575 
L 988.184978 -53.452361 
L 986.357627 -52.881032 
L 984.530275 -57.120355 
L 982.702924 -51.225191 
L 980.875572 -51.275147 
L 979.048221 -54.240525 
L 977.220869 -55.677172 
L 975.393518 -57.398333 
L 973.566167 -66.502771 
L 971.738815 -61.856685 
L 969.911464 -57.519736 
L 968.084112 -59.600253 
L 966.256761 -72.56695 
L 964.429409 -67.961598 
L 962.602058 -79.885175 
L 960.774706 -77.738548 
L 958.947355 -79.188382 
L 957.120003 -71.219469 
L 955.292652 -61.222684 
L 953.4653 -89.120514 
L 951.637949 -87.098951 
L 949.810598 -104.970866 
L 947.983246 -93.592651 
L 946.155895 -99.778642 
L 944.328543 -181.708469 
L 942.501192 -165.571826 
L 940.67384 -165.178528 
L 938.846489 -198.831469 
L 937.019137 -182.667094 
L 935.191786 -194.993351 
L 933.364434 -196.56772 
L 931.537083 -178.806494 
L 929.709731 -191.494848 
L 927.88238 -213.785934 
L 926.055029 -141.319182 
L 924.227677 -132.830415 
L 922.400326 -74.596379 
L 920.572974 -75.089565 
L 918.745623 -72.555966 
L 916.918271 -58.227365 
L 915.09092 -65.282197 
L 913.263568 -73.867703 
L 911.436217 -73.932699 
L 909.608865 -64.831158 
L 907.781514 -60.848957 
L 905.954162 -68.466779 
L 904.126811 -68.15151 
L 902.29946 -54.860139 
L 900.472108 -62.62567 
L 898.644757 -64.240653 
L 896.817405 -68.219385 
L 894.990054 -55.483406 
L 893.162702 -59.106841 
L 891.335351 -55.839948 
L 889.507999 -66.681687 
L 887.680648 -62.799097 
L 885.853296 -66.0288 
L 884.025945 -58.754611 
L 882.198594 -57.652702 
L 880.371242 -67.714533 
L 878.543891 -73.97917 
L 876.716539 -62.540712 
L 874.889188 -69.222449 
L 873.061836 -59.372175 
L 871.234485 -49.557477 
L 869.407133 -48.759331 
L 867.579782 -49.36136 
L 865.75243 -49.410456 
L 863.925079 -49.735122 
L 862.097727 -48.845092 
L 860.270376 -49.224908 
L 858.443025 -48.813798 
L 856.615673 -49.797941 
L 854.788322 -48.711912 
L 852.96097 -47.704785 
L 851.133619 -47.632289 
L 849.306267 -47.365408 
L 847.478916 -48.341399 
L 845.651564 -49.158289 
L 843.824213 -52.455995 
L 841.996861 -48.270263 
L 840.16951 -51.958525 
L 838.342158 -48.995802 
L 836.514807 -49.239204 
L 834.687456 -47.992826 
L 832.860104 -47.401026 
L 831.032753 -48.345043 
L 829.205401 -49.800959 
L 827.37805 -49.558336 
L 825.550698 -48.415229 
L 823.723347 -48.623937 
L 821.895995 -51.449419 
L 820.068644 -50.832493 
L 818.241292 -49.30762 
z
"/>
    </defs>
    <g clip-path="url(#p54d39d963e)">
     <use xlink:href="#mf995f4fd05" x="0" y="245.999497" style="fill: #0f4d92; fill-opacity: 0.16"/>
    </g>
   </g>
   <g id="matplotlib.axis_7">
    <g id="xtick_19">
     <g id="line2d_38">
      <g>
       <use xlink:href="#mb2167cf1d7" x="816.413941" y="207.67981" style="stroke: #000000; stroke-width: 0.8"/>
      </g>
     </g>
     <g id="text_45">
      <text style="font-size: 11px; font-family: 'Arial'; text-anchor: middle" x="816.413941" y="222.553404" transform="rotate(-0 816.413941 222.553404)">0</text>
     </g>
    </g>
    <g id="xtick_20">
     <g id="line2d_39">
      <g>
       <use xlink:href="#mb2167cf1d7" x="852.96097" y="207.67981" style="stroke: #000000; stroke-width: 0.8"/>
      </g>
     </g>
     <g id="text_46">
      <text style="font-size: 11px; font-family: 'Arial'; text-anchor: middle" x="852.96097" y="222.553404" transform="rotate(-0 852.96097 222.553404)">20</text>
     </g>
    </g>
    <g id="xtick_21">
     <g id="line2d_40">
      <g>
       <use xlink:href="#mb2167cf1d7" x="889.507999" y="207.67981" style="stroke: #000000; stroke-width: 0.8"/>
      </g>
     </g>
     <g id="text_47">
      <text style="font-size: 11px; font-family: 'Arial'; text-anchor: middle" x="889.507999" y="222.553404" transform="rotate(-0 889.507999 222.553404)">40</text>
     </g>
    </g>
    <g id="xtick_22">
     <g id="line2d_41">
      <g>
       <use xlink:href="#mb2167cf1d7" x="926.055029" y="207.67981" style="stroke: #000000; stroke-width: 0.8"/>
      </g>
     </g>
     <g id="text_48">
      <text style="font-size: 11px; font-family: 'Arial'; text-anchor: middle" x="926.055029" y="222.553404" transform="rotate(-0 926.055029 222.553404)">60</text>
     </g>
    </g>
    <g id="xtick_23">
     <g id="line2d_42">
      <g>
       <use xlink:href="#mb2167cf1d7" x="962.602058" y="207.67981" style="stroke: #000000; stroke-width: 0.8"/>
      </g>
     </g>
     <g id="text_49">
      <text style="font-size: 11px; font-family: 'Arial'; text-anchor: middle" x="962.602058" y="222.553404" transform="rotate(-0 962.602058 222.553404)">80</text>
     </g>
    </g>
    <g id="xtick_24">
     <g id="line2d_43">
      <g>
       <use xlink:href="#mb2167cf1d7" x="999.149087" y="207.67981" style="stroke: #000000; stroke-width: 0.8"/>
      </g>
     </g>
     <g id="text_50">
      <text style="font-size: 11px; font-family: 'Arial'; text-anchor: middle" x="999.149087" y="222.553404" transform="rotate(-0 999.149087 222.553404)">100</text>
     </g>
    </g>
    <g id="text_51">
     <text style="font-size: 11px; font-family: 'Arial'; text-anchor: middle" x="908.69519" y="236.613247" transform="rotate(-0 908.69519 236.613247)">Episode</text>
    </g>
   </g>
   <g id="matplotlib.axis_8">
    <g id="ytick_17">
     <g id="line2d_44">
      <g>
       <use xlink:href="#m3ce429d977" x="808.190859" y="200.133758" style="stroke: #000000; stroke-width: 0.8"/>
      </g>
     </g>
     <g id="text_52">
      <text style="font-size: 11px; font-family: 'Arial'; text-anchor: end" x="801.190859" y="204.070555" transform="rotate(-0 801.190859 204.070555)">0.00</text>
     </g>
    </g>
    <g id="ytick_18">
     <g id="line2d_45">
      <g>
       <use xlink:href="#m3ce429d977" x="808.190859" y="173.466353" style="stroke: #000000; stroke-width: 0.8"/>
      </g>
     </g>
     <g id="text_53">
      <text style="font-size: 11px; font-family: 'Arial'; text-anchor: end" x="801.190859" y="177.40315" transform="rotate(-0 801.190859 177.40315)">0.01</text>
     </g>
    </g>
    <g id="ytick_19">
     <g id="line2d_46">
      <g>
       <use xlink:href="#m3ce429d977" x="808.190859" y="146.798948" style="stroke: #000000; stroke-width: 0.8"/>
      </g>
     </g>
     <g id="text_54">
      <text style="font-size: 11px; font-family: 'Arial'; text-anchor: end" x="801.190859" y="150.735744" transform="rotate(-0 801.190859 150.735744)">0.02</text>
     </g>
    </g>
    <g id="ytick_20">
     <g id="line2d_47">
      <g>
       <use xlink:href="#m3ce429d977" x="808.190859" y="120.131542" style="stroke: #000000; stroke-width: 0.8"/>
      </g>
     </g>
     <g id="text_55">
      <text style="font-size: 11px; font-family: 'Arial'; text-anchor: end" x="801.190859" y="124.068339" transform="rotate(-0 801.190859 124.068339)">0.03</text>
     </g>
    </g>
    <g id="ytick_21">
     <g id="line2d_48">
      <g>
       <use xlink:href="#m3ce429d977" x="808.190859" y="93.464137" style="stroke: #000000; stroke-width: 0.8"/>
      </g>
     </g>
     <g id="text_56">
      <text style="font-size: 11px; font-family: 'Arial'; text-anchor: end" x="801.190859" y="97.400934" transform="rotate(-0 801.190859 97.400934)">0.04</text>
     </g>
    </g>
    <g id="ytick_22">
     <g id="line2d_49">
      <g>
       <use xlink:href="#m3ce429d977" x="808.190859" y="66.796732" style="stroke: #000000; stroke-width: 0.8"/>
      </g>
     </g>
     <g id="text_57">
      <text style="font-size: 11px; font-family: 'Arial'; text-anchor: end" x="801.190859" y="70.733529" transform="rotate(-0 801.190859 70.733529)">0.05</text>
     </g>
    </g>
    <g id="ytick_23">
     <g id="line2d_50">
      <g>
       <use xlink:href="#m3ce429d977" x="808.190859" y="40.129327" style="stroke: #000000; stroke-width: 0.8"/>
      </g>
     </g>
     <g id="text_58">
      <text style="font-size: 11px; font-family: 'Arial'; text-anchor: end" x="801.190859" y="44.066124" transform="rotate(-0 801.190859 44.066124)">0.06</text>
     </g>
    </g>
    <g id="text_59">
     <text style="font-size: 11px; font-family: 'Arial'; text-anchor: middle" x="773.468672" y="115.768919" transform="rotate(-90 773.468672 115.768919)">Independent diagnostic gradient gap</text>
    </g>
   </g>
   <g id="line2d_51">
    <path d="M 818.241292 197.686105 
L 820.068644 196.184043 
L 821.895995 196.451807 
L 823.723347 198.567257 
L 825.550698 198.183904 
L 827.37805 197.954864 
L 829.205401 198.209527 
L 831.032753 198.678976 
L 832.860104 199.146839 
L 834.687456 198.493234 
L 836.514807 198.571706 
L 838.342158 197.951091 
L 840.16951 198.22973 
L 841.996861 198.538895 
L 843.824213 198.323389 
L 845.651564 197.445927 
L 847.478916 198.103073 
L 849.306267 198.989734 
L 851.133619 198.755532 
L 852.96097 198.770501 
L 854.788322 198.801613 
L 856.615673 198.360995 
L 858.443025 198.435013 
L 860.270376 198.082237 
L 862.097727 198.44083 
L 863.925079 198.441696 
L 865.75243 197.876216 
L 867.579782 197.366233 
L 869.407133 198.391436 
L 871.234485 198.059779 
L 873.061836 194.568004 
L 874.889188 184.341658 
L 876.716539 185.230405 
L 878.543891 187.5712 
L 880.371242 190.21905 
L 882.198594 193.622923 
L 884.025945 195.089179 
L 885.853296 193.204352 
L 887.680648 191.121594 
L 889.507999 193.598707 
L 891.335351 193.524159 
L 893.162702 192.768536 
L 894.990054 196.446771 
L 896.817405 196.878902 
L 898.644757 194.573887 
L 900.472108 190.775263 
L 902.29946 192.410684 
L 904.126811 187.674186 
L 905.954162 191.178786 
L 907.781514 189.086828 
L 909.608865 189.393524 
L 911.436217 186.088242 
L 913.263568 184.746548 
L 915.09092 190.348488 
L 916.918271 193.652526 
L 918.745623 188.731525 
L 920.572974 190.704366 
L 922.400326 188.584036 
L 924.227677 140.304924 
L 926.055029 116.207333 
L 927.88238 86.882011 
L 929.709731 73.201136 
L 931.537083 79.496263 
L 933.364434 75.504741 
L 935.191786 63.119018 
L 937.019137 91.384742 
L 938.846489 74.699527 
L 940.67384 95.317883 
L 942.501192 111.717328 
L 944.328543 111.316743 
L 946.155895 154.738915 
L 947.983246 160.175773 
L 949.810598 157.982607 
L 951.637949 168.992691 
L 953.4653 182.990111 
L 955.292652 188.028704 
L 957.120003 180.543567 
L 958.947355 181.219795 
L 960.774706 174.77318 
L 962.602058 189.036725 
L 964.429409 194.490814 
L 966.256761 193.091255 
L 968.084112 193.345046 
L 969.911464 193.88027 
L 971.738815 185.630814 
L 973.566167 189.833211 
L 975.393518 194.937325 
L 977.220869 194.605602 
L 979.048221 195.163041 
L 980.875572 195.9095 
L 982.702924 195.365554 
L 984.530275 193.28925 
L 986.357627 194.703389 
L 988.184978 197.499348 
L 990.01233 191.623741 
L 991.839681 195.291512 
L 993.667033 186.837592 
L 995.494384 194.11021 
L 997.321736 192.605303 
L 999.149087 193.686378 
" clip-path="url(#p54d39d963e)" style="fill: none; stroke: #0f4d92; stroke-width: 1.8; stroke-linecap: square"/>
   </g>
   <g id="patch_28">
    <path d="M 808.190859 207.67981 
L 808.190859 23.858028 
" style="fill: none; stroke: #000000; stroke-linejoin: miter; stroke-linecap: square"/>
   </g>
   <g id="patch_29">
    <path d="M 808.190859 207.67981 
L 1009.19952 207.67981 
" style="fill: none; stroke: #000000; stroke-linejoin: miter; stroke-linecap: square"/>
   </g>
   <g id="text_60">
    <text style="font-weight: 700; font-size: 13px; font-family: 'Arial'; text-anchor: start" x="784.06982" y="16.505156" transform="rotate(-0 784.06982 16.505156)">D</text>
   </g>
  </g>
 </g>
 <defs>
  <clipPath id="pbfd04013b0">
   <rect x="56.046875" y="23.858028" width="201.008661" height="183.821782"/>
  </clipPath>
  <clipPath id="pf339a7f9cc">
   <rect x="290.495859" y="23.858028" width="201.008661" height="183.821782"/>
  </clipPath>
  <clipPath id="p435dc1b03a">
   <rect x="558.585938" y="23.858028" width="201.008661" height="183.821782"/>
  </clipPath>
  <clipPath id="p54d39d963e">
   <rect x="808.190859" y="23.858028" width="201.008661" height="183.821782"/>
  </clipPath>
 </defs>
</svg>
